<?xml version="1.0" encoding="utf-8"?>
<!-- Generator: Adobe Illustrator 27.1.1, SVG Export Plug-In . SVG Version: 6.00 Build 0)  -->
<svg version="1.1" id="Ebene_1" xmlns="http://www.w3.org/2000/svg" xmlns:xlink="http://www.w3.org/1999/xlink" x="0px" y="0px"
	 viewBox="0 0 209.5 52.6" style="enable-background:new 0 0 209.5 52.6;" xml:space="preserve">

<g id="Ebene_2_00000111882171892403050000000011663679878515744166_">
	<g id="Ebene_1-2">
		<path style="fill:#FFFFFF" class="st0" d="M126.3,37.6c0,3.4-0.9,7.1-4.8,7.1s-4.8-3.7-4.8-7.1s0.9-7,4.8-7S126.3,34.3,126.3,37.6 M137.2,37.5
			c0-6.7-2.6-14.8-12.1-14.8c-3.1-0.1-6,1.4-7.8,3.8h-0.1V13.5h-10.9v38.4h10.5v-3.1h0.1c1.4,1.8,3,3.8,8.3,3.8
			C133.3,52.6,137.2,44.6,137.2,37.5"/>
		<path style="fill:#FFFFFF" class="st0" d="M159.6,34.5h-10.4c0.5-3.1,2.4-4.8,5.6-4.8c2.6-0.1,4.7,2,4.8,4.6C159.6,34.3,159.6,34.4,159.6,34.5
			 M170,40.1c0-11.1-4.9-17.4-16.2-17.4c-8.1-0.2-14.8,6.1-15,14.2c0,0.3,0,0.5,0,0.8c0,9.5,6.9,14.8,15.9,14.8
			c6.5,0,12.4-2.8,14.6-9h-10.2c-1.1,1.4-2.8,2.1-4.5,2c-3.4,0-5.3-2.3-5.5-5.5L170,40.1z"/>
		<path style="fill:#FFFFFF" class="st0" d="M0,51.9h10.9V36.5c0-3,0.9-5.1,3.7-5.1c3.3,0,3.6,2.4,3.6,5.1v15.4h10.9V36.5c0-3,0.9-5.1,3.7-5.1
			c3.3,0,3.6,2.4,3.6,5.1v15.4H47V32.4c0-4.6-2.5-9.6-9.8-9.6c-7.1,0-9.3,4.1-9.7,4.4c-1.3-2.9-4.6-4.4-7.7-4.4
			c-3.9,0-7.1,1.2-9.3,4.5h-0.1v-4H0V51.9z"/>
		<path style="fill:#FFFFFF" class="st0" d="M67.9,41.7c0.1,2.4-1.8,4.4-4.2,4.4c-0.1,0-0.3,0-0.4,0c-2,0-3.4-1.3-3.4-2.6c0-1.9,1.3-2.5,3.7-3.1
			c1.5-0.3,2.9-0.7,4.3-1.4V41.7z M78.3,51.9v-18c0-5.5,0.1-11.1-13.5-11.1c-3.3,0-7,0.3-9.7,1.6c-3,1.3-5,4.4-4.9,7.7h10.1
			c0-1.2,0.7-2.9,4-2.9c1.8,0,3.6,0.7,3.6,2.6S66.5,34,65,34.3c-5.5,1-16,0.7-16,9.7c0,6,4.5,8.6,10,8.6c3.5,0,6.9-0.8,9.1-3.4h0.1
			v2.7L78.3,51.9z"/>
		<path style="fill:#FFFFFF" class="st0" d="M175.2,13.5v9.7h-4.8v6.7h4.8v13.8c0,7.8,5.1,8.5,9.7,8.5c2.3,0,4.8-0.3,7-0.3v-8.2c-0.8,0.1-1.6,0.2-2.5,0.2
			c-2.7,0-3.3-1.2-3.3-3.8V29.9h5.8v-4.3c-5-2.2-8.5-6.7-9.3-12.1L175.2,13.5z"/>
		<path style="fill:#FFFFFF" class="st0" d="M82.2,51.9h10.9v-9c0-2,0-5.4,1.9-7.9c1.5-1.9,3.8-3,6.2-3h2.8V23c-1-0.3-2.1-0.4-3.2-0.4
			c-4,0-6.3,1.3-8.1,4.8h-0.1v-4H82.2V51.9z"/>
		<path style="fill:#FFFFFF" class="st0" d="M202.8,10.1c0,1.9-1.5,3.4-3.4,3.4c-1.9,0-3.4-1.5-3.4-3.4c0-1.9,1.5-3.4,3.4-3.4c0,0,0,0,0,0
			C201.3,6.7,202.8,8.2,202.8,10.1C202.8,10.1,202.8,10.1,202.8,10.1 M209.5,10.1C209.5,4.5,205,0,199.4,0
			c-5.6,0-10.1,4.5-10.1,10.1s4.5,10.1,10.1,10.1c0,0,0,0,0,0C205,20.1,209.5,15.6,209.5,10.1C209.5,10.1,209.5,10.1,209.5,10.1"/>
	</g>
</g>
</svg>
