<svg xmlns="http://www.w3.org/2000/svg" xml:space="preserve" viewBox="0 0 170.1 36.4">
  <path d="M118.5 30.4h7.3l-5.2-9c2.9-1.2 4.5-3.6 4.5-6.6 0-4.6-3-7.6-9-7.6h-11.5v23.2h6.3v-8.1h3.2l4.4 8.1zm.2-15.6c0 1.6-1.1 2.8-3.5 2.8h-4.4V12h4.4c2.4 0 3.5 1.2 3.5 2.8zm-25.4-1.1v7.4c0 3.4-1.6 4.5-3.8 4.5-2.1 0-3.8-1.2-3.8-4.5v-7.5h-6.4v7.8c0 6.1 3.4 9.5 10.3 9.5s10.2-3.4 10.2-9.4v-7.8h-6.5zm-7.6-2.1V7.2h-6.4v4.4h6.4zm7.6 0h6.4V7.2h-6.4v4.4zm-40.6 11L49.4 7.2H43l5.9 23.2h6.8l4-15.2 4 15.2h6.8l5.9-23.2H70l-3.3 15.4-4-15.4h-6l-4 15.4zm110.9-7.1h-7.8V7.2h-6.4v23.2h6.4v-9.7h7.8v9.7h6.5V7.2h-6.5v8.3zm-30.2-3.2v18.2h6.4V12.3h6V7.2h-18.4v5.1h6z"/>
  <path fill="#c00" d="M33.3 14.3H0V0h13.9v5.6h5.6V0h13.9v14.3h-.1zM19.4 30.9v5.6c8-1.5 13.9-8.4 13.9-16.2V20H0v.3C0 28 5.9 34.9 13.9 36.4v-5.6h5.5v.1z"/>
</svg>
